<svg xmlns="http://www.w3.org/2000/svg" xmlns:xlink="http://www.w3.org/1999/xlink" viewBox="0 0 441 104.23" class=""><defs><style>.cls-1{fill:url(#Gradiente_sem_nome_19);}.cls-2{fill:#fff;}</style><linearGradient id="Gradiente_sem_nome_19" x1="13.34" y1="102.07" x2="88.23" y2="27.18" gradientUnits="userSpaceOnUse"><stop offset="0" stop-color="#10bcd7"></stop><stop offset="1" stop-color="#57bf95"></stop></linearGradient></defs><title>noHarm-horizontal</title><g id="Layer_2" data-name="Layer 2"><g id="Camada_1" data-name="Camada 1"><path d="M51.56,45.87A22.94,22.94,0,1,1,74.5,22.94,23,23,0,0,1,51.56,45.87Zm0-38.08A15.15,15.15,0,1,0,66.71,22.94,15.17,15.17,0,0,0,51.56,7.79ZM88.21,42.54a38.73,38.73,0,0,0-6.32-5.69A3.76,3.76,0,0,0,76.53,38l0,.08a3.77,3.77,0,0,0,.94,5.12,31.33,31.33,0,0,1,5,4.51C91.73,58.2,92.77,73.3,92,79.82,91.57,83.62,89,91,82,94.5c-6.15,3.13-14.47,2.32-24.25-2.24,18.93-13.13,19.05-25.9,18.08-31.12-1.2-6.47-5.71-11.37-11.23-12.21A17.49,17.49,0,0,0,50,53.4a17.56,17.56,0,0,0-14.64-4.47c-5.51.84-10,5.74-11.22,12.21-1,5.22-.85,18,18.08,31.12C32.44,96.82,24.12,97.63,18,94.5,11,91,8.43,83.62,8,79.82c-.75-6.52.28-21.62,9.62-32.09a31.18,31.18,0,0,1,7-5.82,3.82,3.82,0,0,0,1.3-5.13l0-.06a3.78,3.78,0,0,0-5.3-1.51,39.6,39.6,0,0,0-8.74,7.33C.64,55.06-.71,72.43.25,80.72c.77,6.63,5,16,14.2,20.73a26.13,26.13,0,0,0,12,2.78c7,0,14.87-2.42,23.55-7.18,8.68,4.76,16.56,7.18,23.55,7.18a26.2,26.2,0,0,0,12-2.78C94.81,96.77,99,87.35,99.75,80.71,100.71,72.43,99.36,55.06,88.21,42.54Zm-56.42,20c.66-3.52,2.88-5.64,4.74-5.92a10.46,10.46,0,0,1,9.7,4,3.8,3.8,0,0,0,3.43,2.58,3.83,3.83,0,0,0,4.12-2.6,10.48,10.48,0,0,1,9.7-4c1.86.28,4.08,2.4,4.73,5.92C68.78,65.64,69,76.28,50,88,31,76.28,31.22,65.64,31.79,62.56Z" class="cls-1"></path><path d="M152.75,40.33a17.44,17.44,0,0,0-5.86-4.17,18.68,18.68,0,0,0-7.55-1.51,25,25,0,0,0-3.61.29,18.09,18.09,0,0,0-4.07,1.16,17.78,17.78,0,0,0-4,2.35c-.11.09-.22.17-.33.27v-.2a3,3,0,0,0-.76-2,2.86,2.86,0,0,0-2.2-.92H123a3,3,0,0,0-2.07.77,2.83,2.83,0,0,0-.92,2.19V68.08a4.09,4.09,0,0,0,0,.53v8.86a2.65,2.65,0,0,0,2.79,2.8h1.71a2.62,2.62,0,0,0,2.73-2.8V53a10.7,10.7,0,0,1,1.1-4.45,11.85,11.85,0,0,1,2.69-3.51,12.42,12.42,0,0,1,3.76-2.28,11.79,11.79,0,0,1,9,.17,11,11,0,0,1,3.52,2.63,12.12,12.12,0,0,1,2.25,3.78,14.08,14.08,0,0,1,.9,4.35v23.4a3.35,3.35,0,0,0,.64,2.16,2.86,2.86,0,0,0,2.38,1h1.19a3.05,3.05,0,0,0,2.19-.88,3.21,3.21,0,0,0,.86-2.32V53.81a20.59,20.59,0,0,0-1.32-7.38A18.89,18.89,0,0,0,152.75,40.33Z" class="cls-2"></path><path d="M203.23,46.26a23.58,23.58,0,0,0-3.65-4.68,24,24,0,0,0-4.7-3.63,23.61,23.61,0,0,0-5.51-2.34,23,23,0,0,0-12.26,0A23.27,23.27,0,0,0,160.93,51.8a23.16,23.16,0,0,0,0,12.29,23.31,23.31,0,0,0,6,10.22,23.86,23.86,0,0,0,4.68,3.63,23.5,23.5,0,0,0,5.52,2.34,23.05,23.05,0,0,0,12.26,0,23.61,23.61,0,0,0,5.51-2.34,24.19,24.19,0,0,0,4.7-3.63,22.95,22.95,0,0,0,6-10.22,22.9,22.9,0,0,0,0-12.29A23.65,23.65,0,0,0,203.23,46.26ZM199,58a15.42,15.42,0,0,1-1.25,6.19,16.12,16.12,0,0,1-8.52,8.46,15.53,15.53,0,0,1-10.25.67,16,16,0,0,1-3.73-1.65,15.34,15.34,0,0,1-3.16-2.53,16.13,16.13,0,0,1-2.44-3.26,16.67,16.67,0,0,1-1.58-3.8,15.69,15.69,0,0,1,.69-10.29,16.61,16.61,0,0,1,3.41-5.13,15.83,15.83,0,0,1,5-3.48,15,15,0,0,1,6.11-1.27,14.48,14.48,0,0,1,6.07,1.3,16.29,16.29,0,0,1,5,3.51,16.72,16.72,0,0,1,3.37,5.14A15.66,15.66,0,0,1,199,58Z" class="cls-2"></path><path d="M242.5,40.45a17,17,0,0,0-12.93-5.71,19.77,19.77,0,0,0-4.73.56,18.47,18.47,0,0,0-4.28,1.62,18.86,18.86,0,0,0-3.34,2.3V25.32a2.62,2.62,0,0,0-2.76-2.77h-1.73A2.63,2.63,0,0,0,210,25.32V77.56a2.65,2.65,0,0,0,2.8,2.8h1.73a2.61,2.61,0,0,0,2.73-2.8V53a10,10,0,0,1,1.14-4.4,11.56,11.56,0,0,1,2.76-3.46A12.52,12.52,0,0,1,225,42.86a11.41,11.41,0,0,1,8.77.17,10.76,10.76,0,0,1,3.33,2.62,12.19,12.19,0,0,1,2.17,3.78,14.64,14.64,0,0,1,.87,4.41V77.2a3.36,3.36,0,0,0,.64,2.17,2.85,2.85,0,0,0,2.38,1h1.19a3,3,0,0,0,2.19-.88,3.18,3.18,0,0,0,.86-2.31V53.94a21.44,21.44,0,0,0-1.26-7.39A18.85,18.85,0,0,0,242.5,40.45Z" class="cls-2"></path><path d="M293.85,35.49h-1.7a2.64,2.64,0,0,0-2.76,2.8V41.2l-.23-.22a22.24,22.24,0,0,0-4.48-3.38,21.89,21.89,0,0,0-5.22-2.14,22.67,22.67,0,0,0-11.82.08,22.94,22.94,0,0,0-5.52,2.37,23.61,23.61,0,0,0-4.68,3.64,24.14,24.14,0,0,0-3.64,4.67A23,23,0,0,0,251.44,64a23.14,23.14,0,0,0,6,10.21,24.62,24.62,0,0,0,4.69,3.63,23.11,23.11,0,0,0,5.52,2.37,22.78,22.78,0,0,0,6.13.83,21.83,21.83,0,0,0,5.74-.75,22.28,22.28,0,0,0,5.19-2.12,21.56,21.56,0,0,0,4.43-3.36l.26-.25v2.77a2.82,2.82,0,0,0,3,2.93h1.34a3.26,3.26,0,0,0,1.84-.55,2.65,2.65,0,0,0,1.12-2.25V38.29A2.68,2.68,0,0,0,293.85,35.49ZM279.74,72.65a15.17,15.17,0,0,1-12.16,0,16.17,16.17,0,0,1-4.95-3.52,16.81,16.81,0,0,1-3.35-5.17,15.72,15.72,0,0,1-1.22-6.11,14.9,14.9,0,0,1,1.25-6,17.07,17.07,0,0,1,3.43-5.1,16.78,16.78,0,0,1,5-3.49,14.33,14.33,0,0,1,6-1.27,15,15,0,0,1,6,1.31,16.83,16.83,0,0,1,8.56,8.6,14.77,14.77,0,0,1,1.29,6,15.11,15.11,0,0,1-1.28,6.16,16.76,16.76,0,0,1-3.46,5.12A16.39,16.39,0,0,1,279.74,72.65Z" class="cls-2"></path><path d="M330.65,39.35A22.34,22.34,0,0,0,328,37.57a16.93,16.93,0,0,0-2.81-1.29,18.29,18.29,0,0,0-11-.3,15.69,15.69,0,0,0-3.75,1.81,16.79,16.79,0,0,0-1.68,1.27v-.38a3,3,0,0,0-.76-2,2.86,2.86,0,0,0-2.2-.92h-1.72a2.54,2.54,0,0,0-2.67,2.64V77.5a2.65,2.65,0,0,0,2.83,2.77H306a2.63,2.63,0,0,0,2.79-2.77V53.15a11.87,11.87,0,0,1,.83-4.53,9.7,9.7,0,0,1,5.53-5.47,11,11,0,0,1,4.08-.76,6.7,6.7,0,0,1,1.62.22,13.83,13.83,0,0,1,1.84.64c.64.27,1.24.56,1.81.87a14.39,14.39,0,0,1,1.41.86,5.31,5.31,0,0,0,1.16.7,2.45,2.45,0,0,0,2.75-.35,16,16,0,0,0,1.33-1.27,3.23,3.23,0,0,0,1-2.09,2.71,2.71,0,0,0-.71-1.85A6,6,0,0,0,330.65,39.35Z" class="cls-2"></path><path d="M397.34,50.05a18.78,18.78,0,0,0-1.8-5.89,16.36,16.36,0,0,0-8.71-8,18.34,18.34,0,0,0-11.14-.6,16.6,16.6,0,0,0-4.34,1.81,15.3,15.3,0,0,0-3.63,3,15,15,0,0,0-1.09,1.4,16.65,16.65,0,0,0-4.34-4.24,17.88,17.88,0,0,0-13.54-2.1A14.47,14.47,0,0,0,345.11,37a16.31,16.31,0,0,0-2.51,1.84v-.37a3,3,0,0,0-.76-2,2.86,2.86,0,0,0-2.2-.92H338.3a3.22,3.22,0,0,0-1.94.63,2.69,2.69,0,0,0-1.08,2.24V77.47a2.66,2.66,0,0,0,2.83,2.8h1.69a2.64,2.64,0,0,0,2.77-2.8v-9a2.38,2.38,0,0,0,0-.46V51.49a9.07,9.07,0,0,1,1-3.73,10.22,10.22,0,0,1,2.28-2.94A10.55,10.55,0,0,1,349,42.93a10.72,10.72,0,0,1,7.43,0,10,10,0,0,1,3,1.83,9.73,9.73,0,0,1,2.07,2.66,10.13,10.13,0,0,1,1.05,3.26,19,19,0,0,1,.2,2c0,.7,0,1.39,0,2.06V77.11a3.35,3.35,0,0,0,.65,2.18,2.9,2.9,0,0,0,2.38,1h1.24a3,3,0,0,0,2.19-.88,3.19,3.19,0,0,0,.87-2.32V54.72a25.7,25.7,0,0,1,.37-4.45,9.24,9.24,0,0,1,1.12-3.2,9.67,9.67,0,0,1,2.13-2.54,9.82,9.82,0,0,1,2.94-1.69,10.61,10.61,0,0,1,7.75.26,9.75,9.75,0,0,1,3.12,2.32,10.49,10.49,0,0,1,2,3.34,12.61,12.61,0,0,1,.8,3.87V77.11a3.48,3.48,0,0,0,.59,2.12,2.8,2.8,0,0,0,2.4,1h1.22a3,3,0,0,0,2.19-.88,3.22,3.22,0,0,0,.86-2.35V54.82q0-1.17,0-2.34A23.86,23.86,0,0,0,397.34,50.05Z" class="cls-2"></path><path d="M404.1,74.38h-.51a3.37,3.37,0,0,0-1.24.23,2.26,2.26,0,0,0-1.41,2.15v1a2.39,2.39,0,0,0,1,2,2.89,2.89,0,0,0,1.65.45h.8a2.28,2.28,0,0,0,2.12-1.33,3.17,3.17,0,0,0,.25-1.32V77a2.72,2.72,0,0,0-.58-1.8A2.57,2.57,0,0,0,404.1,74.38Z" class="cls-2"></path><path d="M429.38,57.27h-.78a2.28,2.28,0,0,0-2.24,1.56c-.23-.16-.46-.3-.7-.44a11.2,11.2,0,0,0-2.68-1.1,11.67,11.67,0,0,0-6.07,0,12.19,12.19,0,0,0-2.83,1.21,12.52,12.52,0,0,0-2.38,1.86,12.25,12.25,0,0,0-1.85,2.38,11.45,11.45,0,0,0-1.21,2.83,11.68,11.68,0,0,0,0,6.28,12,12,0,0,0,1.19,2.82,11.66,11.66,0,0,0,1.87,2.4A12.88,12.88,0,0,0,414.08,79a11.84,11.84,0,0,0,2.83,1.21,11.72,11.72,0,0,0,3.14.42,11.47,11.47,0,0,0,2.95-.38,11.28,11.28,0,0,0,2.66-1.09q.38-.21.72-.45a2.4,2.4,0,0,0,2.34,1.56h.62a2.59,2.59,0,0,0,1.46-.44,2.3,2.3,0,0,0,1-1.94V59.65A2.31,2.31,0,0,0,429.38,57.27Zm-3.06,11.49a6,6,0,0,1-.49,2.43,6.81,6.81,0,0,1-1.39,2,6.64,6.64,0,0,1-2.05,1.39,5.91,5.91,0,0,1-4.77,0,6.29,6.29,0,0,1-2-1.41,6.77,6.77,0,0,1-1.34-2.07,6.22,6.22,0,0,1-.48-2.42,5.83,5.83,0,0,1,.49-2.38,6.93,6.93,0,0,1,1.38-2,6.37,6.37,0,0,1,2-1.39,5.42,5.42,0,0,1,2.33-.5,6,6,0,0,1,2.36.51,6.59,6.59,0,0,1,2,1.41,6.66,6.66,0,0,1,1.4,2A5.63,5.63,0,0,1,426.32,68.76Z" class="cls-2"></path><path d="M440.78,52.42A2.26,2.26,0,0,0,438.87,51h-1.53a2.3,2.3,0,0,0-1.84,1.31,2.94,2.94,0,0,0-.25,1.25v.78a2.29,2.29,0,0,0,1,2,2.91,2.91,0,0,0,1.59.4h.54a2.6,2.6,0,0,0,1.77-.57,2.45,2.45,0,0,0,.82-2V53.6A3.24,3.24,0,0,0,440.78,52.42Z" class="cls-2"></path><path d="M438.52,57.3h-.81a2.3,2.3,0,0,0-2.37,2.38V77.85a2.31,2.31,0,0,0,2.4,2.38h.79a2.29,2.29,0,0,0,2.36-2.38V59.68A2.3,2.3,0,0,0,438.52,57.3Z" class="cls-2"></path></g></g></svg>